<?xml version="1.0" encoding="UTF-8"?>
<svg version="1.1" xmlns="http://www.w3.org/2000/svg" width="225" height="225">
<path d="M0 0 C74.25 0 148.5 0 225 0 C225 74.25 225 148.5 225 225 C150.75 225 76.5 225 0 225 C0 150.75 0 76.5 0 0 Z " fill="#FEFEFE" transform="translate(0,0)"/>
<path d="M0 0 C12.72113122 10.2272027 23.78547429 23.00817205 27.12109375 39.58203125 C28.99545639 57.00774641 26.01171376 74.30927505 15.13867188 88.51660156 C1.94532543 104.73873259 -17.75522621 115.65020579 -38.62890625 117.90625 C-55.89343493 118.82591786 -71.10249779 118.14020064 -86.88671875 110.60546875 C-89.56160705 109.53191492 -90.98184826 109.82027749 -93.62890625 110.90625 C-95.61161202 111.92085423 -97.58638049 112.94952546 -99.55859375 113.984375 C-102.58597811 115.33241785 -105.34007436 115.63218068 -108.62890625 115.90625 C-107.69155093 113.0272301 -106.75117847 110.19394934 -105.56640625 107.40625 C-104.51054192 104.59061179 -104.04360621 101.8782664 -103.62890625 98.90625 C-104.48742187 98.53886719 -104.48742187 98.53886719 -105.36328125 98.1640625 C-116.07451915 92.2174787 -121.94506584 78.64255507 -125.79296875 67.55078125 C-130.37772858 50.30437163 -127.45797898 34.52180693 -118.73828125 19.11328125 C-107.76486302 2.4296213 -89.56348341 -9.3930435 -70.18847656 -14.0612793 C-46.62738809 -18.77632206 -19.44782009 -14.56191455 0 0 Z " fill="#FDFDFE" transform="translate(162.62890625,61.09375)"/>
<path d="M0 0 C12.72113122 10.2272027 23.78547429 23.00817205 27.12109375 39.58203125 C28.99545639 57.00774641 26.01171376 74.30927505 15.13867188 88.51660156 C1.94532543 104.73873259 -17.75522621 115.65020579 -38.62890625 117.90625 C-55.89343493 118.82591786 -71.10249779 118.14020064 -86.88671875 110.60546875 C-89.56160705 109.53191492 -90.98184826 109.82027749 -93.62890625 110.90625 C-95.61161202 111.92085423 -97.58638049 112.94952546 -99.55859375 113.984375 C-102.58597811 115.33241785 -105.34007436 115.63218068 -108.62890625 115.90625 C-107.69155093 113.0272301 -106.75117847 110.19394934 -105.56640625 107.40625 C-104.51054192 104.59061179 -104.04360621 101.8782664 -103.62890625 98.90625 C-104.48742187 98.53886719 -104.48742187 98.53886719 -105.36328125 98.1640625 C-116.07451915 92.2174787 -121.94506584 78.64255507 -125.79296875 67.55078125 C-130.37772858 50.30437163 -127.45797898 34.52180693 -118.73828125 19.11328125 C-107.76486302 2.4296213 -89.56348341 -9.3930435 -70.18847656 -14.0612793 C-46.62738809 -18.77632206 -19.44782009 -14.56191455 0 0 Z M-101.890625 22.46875 C-106.88078307 29.46618514 -110.65962766 37.3169505 -111.62890625 45.90625 C-111.72300781 46.710625 -111.81710938 47.515 -111.9140625 48.34375 C-112.63475051 60.76175886 -107.83609443 73.66636927 -99.62890625 82.90625 C-94.38790826 88.15946477 -90.09826106 89.05716764 -82.85620117 89.08325195 C-82.06560806 89.08982315 -81.27501495 89.09639435 -80.46046448 89.10316467 C-77.84343367 89.12287949 -75.22646019 89.13455588 -72.609375 89.14453125 C-71.26773002 89.15064454 -71.26773002 89.15064454 -69.89898109 89.15688133 C-65.16532243 89.17773379 -60.43169269 89.19203938 -55.69799805 89.20141602 C-50.81201836 89.21248198 -45.92649391 89.24688631 -41.04067516 89.28658772 C-37.28053446 89.31274643 -33.52050239 89.32110716 -29.7602787 89.32469749 C-27.95937333 89.32956496 -26.15847287 89.34118354 -24.35765648 89.35973549 C-21.83466988 89.38411273 -19.31286351 89.38316488 -16.78979492 89.3762207 C-16.04931915 89.38903076 -15.30884338 89.40184082 -14.54592896 89.41503906 C-8.59081217 89.35544425 -5.21112845 87.26011241 -0.90625 83.3359375 C7.37984024 73.7211739 12.10091692 61.46057057 11.6484375 48.71875 C10.3742523 35.79743528 5.31075236 24.45064938 -4.83203125 16.11328125 C-8.76377506 13.47217508 -12.76588992 13.75200742 -17.30981445 13.74511719 C-18.09065399 13.74015228 -18.87149353 13.73518738 -19.67599487 13.73007202 C-22.26056804 13.71546105 -24.84507981 13.70864993 -27.4296875 13.703125 C-29.22706606 13.69737236 -31.0244446 13.69161464 -32.82182312 13.68585205 C-36.59207444 13.67534488 -40.36230446 13.66950046 -44.13256836 13.66601562 C-48.9579322 13.66053364 -53.78301348 13.63651078 -58.60828876 13.60804367 C-62.32210608 13.58939667 -66.03585564 13.58421058 -69.74971581 13.58267975 C-71.52827689 13.57965699 -73.30683688 13.57164119 -75.08535194 13.55849457 C-77.57705646 13.54139195 -80.06807465 13.54332451 -82.55981445 13.54980469 C-83.29093948 13.5405899 -84.02206451 13.53137512 -84.77534485 13.5218811 C-92.58078609 13.58529802 -97.09280596 16.68158025 -101.890625 22.46875 Z " fill="#3243DA" transform="translate(162.62890625,61.09375)"/>
<path d="M0 0 C7.17824617 2.53349865 12.35098707 6.31014296 16 13 C19.1150627 20.67289129 19.41163989 30.07186431 17.125 38.0546875 C13.97722833 44.86795645 9.54677114 49.58129154 2.5625 52.375 C1.716875 52.58125 0.87125 52.7875 0 53 C0.19335938 52.45472656 0.38671875 51.90945312 0.5859375 51.34765625 C1.42794479 48.90916978 2.22297455 46.45994888 3 44 C3.21269531 43.33871094 3.42539063 42.67742187 3.64453125 41.99609375 C6.82868618 30.29031556 5.6926323 17.40212804 2 6 C1.608125 4.7625 1.21625 3.525 0.8125 2.25 C0.544375 1.5075 0.27625 0.765 0 0 Z " fill="#3646D9" transform="translate(188,86)"/>
<path d="M0 0 C1 2 1 2 0.2578125 4.390625 C-0.11601563 5.33421875 -0.48984375 6.2778125 -0.875 7.25 C-5.86801951 19.88967177 -4.92910254 33.19687564 -1 46 C-0.60258988 47.41622515 -0.20647715 48.832816 0.1875 50.25 C0.455625 51.1575 0.72375 52.065 1 53 C-4.97538847 51.65553759 -9.09355378 48.60461959 -13 44 C-17.47690915 36.27170432 -18.0315012 27.73681515 -17 19 C-16.06737223 15.69297806 -14.79525569 12.92120003 -13 10 C-12.443125 9.0925 -11.88625 8.185 -11.3125 7.25 C-7.98824195 4.01558677 -4.1222723 2.06994443 0 0 Z " fill="#3545D9" transform="translate(36,86)"/>
<path d="M0 0 C3.8026029 2.0050088 5.61790841 3.42686262 8 7 C8.1875 9.625 8.1875 9.625 8 12 C6.31483046 13.68516954 4.21232212 13.13008019 1.90625 13.1328125 C0.87628906 13.13410156 -0.15367188 13.13539062 -1.21484375 13.13671875 C-2.84099609 13.13091797 -2.84099609 13.13091797 -4.5 13.125 C-5.58410156 13.12886719 -6.66820313 13.13273437 -7.78515625 13.13671875 C-8.81511719 13.13542969 -9.84507813 13.13414063 -10.90625 13.1328125 C-11.85822266 13.13168457 -12.81019531 13.13055664 -13.79101562 13.12939453 C-16 13 -16 13 -17 12 C-17.375 9.75 -17.375 9.75 -17 7 C-11.82390629 0.98453974 -7.78811513 -1.10309481 0 0 Z " fill="#3848D9" transform="translate(88,99)"/>
<path d="M0 0 C3.8026029 2.0050088 5.61790841 3.42686262 8 7 C8.125 9.6875 8.125 9.6875 8 12 C3.1056531 13.27414816 -1.73175245 13.14757083 -6.75 13.125 C-7.62527344 13.12886719 -8.50054687 13.13273437 -9.40234375 13.13671875 C-10.23378906 13.13542969 -11.06523437 13.13414063 -11.921875 13.1328125 C-12.68081055 13.13168457 -13.43974609 13.13055664 -14.22167969 13.12939453 C-16 13 -16 13 -17 12 C-16.83857919 7.72234855 -16.68438372 5.66683542 -13.5625 2.625 C-8.95829908 -0.29473717 -5.40643031 -0.67239638 0 0 Z " fill="#3747D9" transform="translate(146,99)"/>
<path d="M0 0 C4.70588235 0.70588235 4.70588235 0.70588235 6 2 C6.08758003 3.99964982 6.10696576 6.0023611 6.09765625 8.00390625 C6.09443359 9.21884766 6.09121094 10.43378906 6.08789062 11.68554688 C6.07951172 12.96494141 6.07113281 14.24433594 6.0625 15.5625 C6.05798828 16.84576172 6.05347656 18.12902344 6.04882812 19.45117188 C6.03699545 22.63416022 6.02051068 25.81705762 6 29 C2.97872122 27.46214188 1.16866036 26.5168154 -1 24 C-1.9160328 20.06166161 -1.70711211 16.26896111 -1.5 12.25 C-1.47679687 11.18394531 -1.45359375 10.11789063 -1.4296875 9.01953125 C-1.21084535 1.21084535 -1.21084535 1.21084535 0 0 Z " fill="#3342D7" transform="translate(198,63)"/>
<path d="M0 0 C2.625 0.375 2.625 0.375 5 1 C5.20382103 4.72835701 5.32779471 8.45528129 5.4375 12.1875 C5.49615234 13.24259766 5.55480469 14.29769531 5.61523438 15.38476562 C5.78524894 23.08399685 5.78524894 23.08399685 3.41064453 25.85400391 C1.47265625 27.23828125 1.47265625 27.23828125 -2 29 C-2.0578304 24.54172074 -2.09353855 20.0835372 -2.125 15.625 C-2.14175781 14.35398437 -2.15851562 13.08296875 -2.17578125 11.7734375 C-2.18222656 10.56171875 -2.18867188 9.35 -2.1953125 8.1015625 C-2.21102295 6.42054443 -2.21102295 6.42054443 -2.22705078 4.70556641 C-2 2 -2 2 0 0 Z " fill="#3342D8" transform="translate(23,63)"/>
<path d="M0 0 C1.0209375 0.5259375 1.0209375 0.5259375 2.0625 1.0625 C5.73622299 2.23496478 8.23870389 1.68387202 12 1 C13.32 1 14.64 1 16 1 C14.63016497 4.16115776 14.0109362 4.9927092 11 7 C6.6867465 7.47925039 4.69413218 7.47260063 1.0625 5 C0.381875 4.34 -0.29875 3.68 -1 3 C-0.67 2.01 -0.34 1.02 0 0 Z " fill="#3242D4" transform="translate(105,119)"/>
<path d="M0 0 C0 3 0 3 -2.1875 5.48046875 C-3.115625 6.37378906 -4.04375 7.26710938 -5 8.1875 C-5.928125 9.08855469 -6.85625 9.98960938 -7.8125 10.91796875 C-8.534375 11.60503906 -9.25625 12.29210937 -10 13 C-10.66 12.67 -11.32 12.34 -12 12 C-8.27653164 7.57905197 -4.70478962 3.42166518 0 0 Z " fill="#3D4CD5" transform="translate(60,63)"/>
</svg>
